<?xml version="1.0" encoding="UTF-8"?>
<svg version="1.1" xmlns="http://www.w3.org/2000/svg" width="205" height="205">
<path d="M0 0 C67.65 0 135.3 0 205 0 C205 67.65 205 135.3 205 205 C137.35 205 69.7 205 0 205 C0 137.35 0 69.7 0 0 Z " fill="#C7C7C6" transform="translate(0,0)"/>
<path d="M0 0 C0.66 0 1.32 0 2 0 C2.125 5.75 2.125 5.75 1 8 C0.34 8 -0.32 8 -1 8 C-1.66 9.65 -2.32 11.3 -3 13 C-3.66 13 -4.32 13 -5 13 C-5.36368892 14.60203467 -5.71561952 16.20674203 -6.0625 17.8125 C-6.35833984 19.15248047 -6.35833984 19.15248047 -6.66015625 20.51953125 C-7.20349463 23.12630779 -7.20349463 23.12630779 -6 26 C-5.25234375 25.855625 -4.5046875 25.71125 -3.734375 25.5625 C-2.74953125 25.376875 -1.7646875 25.19125 -0.75 25 C0.22453125 24.814375 1.1990625 24.62875 2.203125 24.4375 C5 24 5 24 9 24 C9.495 24.99 9.495 24.99 10 26 C11.485 26.495 11.485 26.495 13 27 C13 26.34 13 25.68 13 25 C13.78375 24.7525 14.5675 24.505 15.375 24.25 C18.32317108 22.84610901 18.9024777 21.99324263 20 19 C20.495 19.99 20.495 19.99 21 21 C22.2375 19.7934375 22.2375 19.7934375 23.5 18.5625 C27.18112274 15.44499414 30.26353911 15.24498936 35 15 C35.33 14.01 35.66 13.02 36 12 C37.32 12.33 38.64 12.66 40 13 C40 12.34 40 11.68 40 11 C42.49361571 12.20381448 44.68143083 13.45428722 47 15 C43.55384615 19.8 43.55384615 19.8 40.75 20.8125 C40.1725 20.874375 39.595 20.93625 39 21 C38.67 22.98 38.34 24.96 38 27 C39.32 27 40.64 27 42 27 C42 26.01 42 25.02 42 24 C42.66 24 43.32 24 44 24 C44.495 26.475 44.495 26.475 45 29 C45.99 28.67 46.98 28.34 48 28 C50 30 50 30 50 33 C51.65 33 53.3 33 55 33 C55.33 33.66 55.66 34.32 56 35 C55.01 35 54.02 35 53 35 C53.185625 35.94875 53.37125 36.8975 53.5625 37.875 C54 41 54 41 53 43 C57.44528629 41.54266255 60.3567922 39.23509039 63.875 36.1875 C75.82395871 26 75.82395871 26 80 26 C81 30 82 34 83 38 C83.66 38 84.32 38 85 38 C85 38.66 85 39.32 85 40 C86.155 39.79375 87.31 39.5875 88.5 39.375 C93.10626876 38.77453996 96.58291388 39.65909885 101 41 C101 40.34 101 39.68 101 39 C103.97 39.33 106.94 39.66 110 40 C110.73526277 41.97184108 111.46977214 43.94396869 112.19921875 45.91796875 C113.0060735 48.09471028 113.0060735 48.09471028 114.1875 50.5 C114.99357087 52.98021807 115.03204442 54.49561905 114.9375 57.0625 C114.7146543 60.82202254 114.7146543 60.82202254 116.09375 63.203125 C118.81115563 65.76461391 120.88370901 65.56829895 124.5625 65.6875 C130.86698912 65.93349456 130.86698912 65.93349456 133 67 C133 67.66 133 68.32 133 69 C133.99 69 134.98 69 136 69 C136.33 71.64 136.66 74.28 137 77 C137.99 77 138.98 77 140 77 C139.07644017 87.85182801 133.75778359 96.57398461 125.8984375 103.98046875 C117.69472385 110.77824561 108.69798325 114.12811423 98.10308838 114.12025452 C97.40955033 114.12110894 96.71601228 114.12196337 96.00145793 114.12284368 C93.6783545 114.12449034 91.35532334 114.11899043 89.03222656 114.11352539 C87.36663311 114.11324332 85.70103954 114.11340165 84.03544617 114.1139679 C79.51308911 114.11425508 74.99075853 114.108371 70.46840763 114.10139394 C65.74250993 114.09514737 61.01661164 114.09455557 56.29071045 114.09336853 C47.34122287 114.09025907 38.39174748 114.08205085 29.44226527 114.07201904 C19.25373441 114.06084598 9.06520296 114.05534444 -1.1233325 114.05032361 C-22.08222848 114.03986793 -43.04111347 114.02227591 -64 114 C-64.14917143 108.18346179 -64.25760263 102.36805524 -64.32958984 96.55004883 C-64.35962136 94.57426539 -64.40046024 92.5986137 -64.45263672 90.62329102 C-64.96368489 70.76756641 -64.96368489 70.76756641 -59.56062317 64.5151062 C-59.04561752 64.01512115 -58.53061188 63.51513611 -58 63 C-57.10804527 61.96096123 -56.21611685 60.92189988 -55.32421875 59.8828125 C-54.01904297 58.51769531 -54.01904297 58.51769531 -52.6875 57.125 C-49.1372832 53.35771831 -45.7430264 49.5406828 -42.5 45.5 C-38.38214281 40.38588704 -34.00724264 35.5703594 -29.54296875 30.76171875 C-27.53828926 28.58459371 -25.598748 26.38287232 -23.6875 24.125 C-18.65655741 18.31065029 -13.07230448 12.99485201 -7.60839844 7.59228516 C-5.39717531 5.40321453 -3.19815795 3.20218388 -1 1 C-0.67 0.67 -0.34 0.34 0 0 Z " fill="#030202" transform="translate(64,91)"/>
<path d="M0 0 C3.93951555 4.54559487 6.58123179 9.77399839 9.4140625 15.05859375 C16.37530367 27.96946716 24.44096169 40.10567808 33 52 C36.2116134 51.40611967 38.01234551 50.41717612 40.4609375 48.27734375 C41.41613281 47.47006836 41.41613281 47.47006836 42.390625 46.64648438 C43.71100175 45.50934888 45.02615441 44.36611849 46.3359375 43.21679688 C49.29914731 40.72853703 51.25765986 39.14865502 55.1015625 38.37890625 C60.28447958 39.48953134 63.16303796 41.85711391 66.265625 46.09375 C67.24789062 47.77984375 67.24789062 47.77984375 68.25 49.5 C68.91515625 50.6240625 69.5803125 51.748125 70.265625 52.90625 C72 56 72 56 72.9453125 58.328125 C73.89834888 60.20887535 73.89834888 60.20887535 76.1640625 60.828125 C76.97617188 60.96734375 77.78828125 61.1065625 78.625 61.25 C79.44226563 61.39953125 80.25953125 61.5490625 81.1015625 61.703125 C81.72804688 61.80109375 82.35453125 61.8990625 83 62 C82.79375 62.928125 82.5875 63.85625 82.375 64.8125 C81.63307034 68.15173402 81.63307034 68.15173402 84 71 C83.67 71.66 83.34 72.32 83 73 C86.63 73.33 90.26 73.66 94 74 C93.835 74.886875 93.67 75.77375 93.5 76.6875 C93.07004243 79.53596892 92.91558965 82.13004802 93 85 C98.95942591 87.74278135 98.95942591 87.74278135 110 87 C110 103.83 110 120.66 110 138 C98.12 138 86.24 138 74 138 C76.94648852 136.52675574 79.61669648 135.40533024 82.6875 134.3125 C93.20040207 130.11662892 100.52601114 122.62954923 105.25 112.4375 C106.81237243 108.68780618 107.99565794 104.93367306 109 101 C108.01 101 107.02 101 106 101 C104.64560332 98.29120665 104.93498549 95.99066732 105 93 C104.01 93 103.02 93 102 93 C102 92.34 102 91.68 102 91 C100.96359375 90.98582031 99.9271875 90.97164063 98.859375 90.95703125 C97.48953943 90.91011907 96.11974913 90.86187173 94.75 90.8125 C94.06808594 90.80669922 93.38617188 90.80089844 92.68359375 90.79492188 C88.96151794 90.63230691 87.28057268 90.26068958 84.51953125 87.6953125 C82.77463426 84.600251 82.85793538 82.47609808 83.0546875 78.98046875 C82.96969489 75.90252205 81.44862758 73.66547474 80 71 C79.3125 67.625 79.3125 67.625 79 65 C76.03 64.34 73.06 63.68 70 63 C70 63.66 70 64.32 70 65 C64.72 64.67 59.44 64.34 54 64 C54 63.34 54 62.68 54 62 C53.34 62 52.68 62 52 62 C49.58314288 57.77050005 48.65166856 54.87664009 49 50 C43.82565701 52.80304588 39.27023273 55.94306221 34.6875 59.625 C34.06810547 60.11484375 33.44871094 60.6046875 32.81054688 61.109375 C30.44107988 62.99259958 28.14190112 64.85809888 26 67 C24.68 67 23.36 67 22 67 C22 64.36 22 61.72 22 59 C22.66 58.67 23.32 58.34 24 58 C22.35 58 20.7 58 19 58 C18.34 56.35 17.68 54.7 17 53 C16.01 53 15.02 53 14 53 C13.67 51.35 13.34 49.7 13 48 C12.34 48.66 11.68 49.32 11 50 C11.33 50.66 11.66 51.32 12 52 C10.35 51.67 8.7 51.34 7 51 C7.60946746 45.5147929 7.60946746 45.5147929 9.375 43.1875 C11 42 11 42 14 41 C14.11638731 39.52263018 14.11638731 39.52263018 11.5 37.4375 C10.675 36.633125 9.85 35.82875 9 35 C9 35.66 9 36.32 9 37 C7.68 37 6.36 37 5 37 C4.566875 37.45375 4.13375 37.9075 3.6875 38.375 C1.1769172 40.79259825 -1.6763314 41.18476053 -5 42 C-5 42.99 -5 43.98 -5 45 C-6.66611905 45.042721 -8.33382885 45.04063832 -10 45 C-10.495 44.505 -10.495 44.505 -11 44 C-11.226875 44.639375 -11.45375 45.27875 -11.6875 45.9375 C-13 48 -13 48 -15.625 48.75 C-16.40875 48.8325 -17.1925 48.915 -18 49 C-18 49.66 -18 50.32 -18 51 C-19.32 50.67 -20.64 50.34 -22 50 C-22 49.34 -22 48.68 -22 48 C-23.7634375 48.495 -23.7634375 48.495 -25.5625 49 C-29.5011676 49.9969533 -32.95139129 50.16869203 -37 50 C-38.125 48.4375 -38.125 48.4375 -39 46 C-38.2811029 42.79261294 -37.47076629 39.94153258 -36 37 C-35.34 37 -34.68 37 -34 37 C-33.34 35.35 -32.68 33.7 -32 32 C-31.34 32 -30.68 32 -30 32 C-29.67 29.36 -29.34 26.72 -29 24 C-29.66 23.67 -30.32 23.34 -31 23 C-7.26415616 -1.35147091 -7.26415616 -1.35147091 0 0 Z " fill="#D23F48" transform="translate(95,67)"/>
<path d="M0 0 C2.49361571 1.20381448 4.68143083 2.45428722 7 4 C3.55384615 8.8 3.55384615 8.8 0.75 9.8125 C0.1725 9.874375 -0.405 9.93625 -1 10 C-1.33 11.98 -1.66 13.96 -2 16 C-0.68 16 0.64 16 2 16 C2 15.01 2 14.02 2 13 C2.66 13 3.32 13 4 13 C4.495 15.475 4.495 15.475 5 18 C5.99 17.67 6.98 17.34 8 17 C10 19 10 19 10 22 C11.65 22 13.3 22 15 22 C15.495 22.99 15.495 22.99 16 24 C15.01 24 14.02 24 13 24 C13.185625 24.94875 13.37125 25.8975 13.5625 26.875 C14 30 14 30 13 32 C13.66 32.33 14.32 32.66 15 33 C11.66809755 36.4307494 8.32328789 39.84817146 4.96582031 43.25390625 C3.82545259 44.41439429 2.68870002 45.57844632 1.55566406 46.74609375 C-0.07330853 48.42356465 -1.71483803 50.08780282 -3.359375 51.75 C-3.86370056 52.2749707 -4.36802612 52.79994141 -4.88763428 53.34082031 C-6.34277344 54.796875 -6.34277344 54.796875 -9 57 C-10.32 57 -11.64 57 -13 57 C-13 45.5 -13 45.5 -11 40 C-10.34 40 -9.68 40 -9 40 C-9 39.34 -9 38.68 -9 38 C-9.61875 38.185625 -10.2375 38.37125 -10.875 38.5625 C-13 39 -13 39 -15 38 C-15 36.68 -15 35.36 -15 34 C-15.94875 34.350625 -16.8975 34.70125 -17.875 35.0625 C-21 36 -21 36 -23 35 C-23 34.34 -23 33.68 -23 33 C-24.65 33 -26.3 33 -28 33 C-26 30 -26 30 -23.375 29.3125 C-22.59125 29.209375 -21.8075 29.10625 -21 29 C-21 28.34 -21 27.68 -21 27 C-20.01 27 -19.02 27 -18 27 C-18 26.01 -18 25.02 -18 24 C-18.66 24 -19.32 24 -20 24 C-20 23.34 -20 22.68 -20 22 C-21.32 22.33 -22.64 22.66 -24 23 C-23.67 22.01 -23.34 21.02 -23 20 C-27.58335908 18.07794619 -32.27934033 16.54269924 -37 15 C-37 15.66 -37 16.32 -37 17 C-44.75 17.125 -44.75 17.125 -47 16 C-47 15.34 -47 14.68 -47 14 C-47.66 14 -48.32 14 -49 14 C-51 12 -51 12 -52 10 C-51.06421005 7.64018187 -50.06652192 5.30368736 -49 3 C-47.68 3.33 -46.36 3.66 -45 4 C-45.350625 5.0725 -45.70125 6.145 -46.0625 7.25 C-46.94680186 10.78720743 -47.02880551 11.74811124 -46 15 C-45.25234375 14.855625 -44.5046875 14.71125 -43.734375 14.5625 C-42.74953125 14.376875 -41.7646875 14.19125 -40.75 14 C-39.77546875 13.814375 -38.8009375 13.62875 -37.796875 13.4375 C-35 13 -35 13 -31 13 C-30.67 13.66 -30.34 14.32 -30 15 C-29.01 15.33 -28.02 15.66 -27 16 C-27 15.34 -27 14.68 -27 14 C-26.21625 13.7525 -25.4325 13.505 -24.625 13.25 C-21.67682892 11.84610901 -21.0975223 10.99324263 -20 8 C-19.505 8.99 -19.505 8.99 -19 10 C-18.175 9.195625 -17.35 8.39125 -16.5 7.5625 C-12.81887726 4.44499414 -9.73646089 4.24498936 -5 4 C-4.67 3.01 -4.34 2.02 -4 1 C-2.68 1.33 -1.36 1.66 0 2 C0 1.34 0 0.68 0 0 Z " fill="#401111" transform="translate(104,102)"/>
<path d="M0 0 C3.93022281 4.53487247 6.57098642 9.74751582 9.390625 15.0234375 C13.27224845 22.20255659 17.3426602 29.29343069 22 36 C21.505 36.99 21.505 36.99 21 38 C18 37 18 37 16 35 C9.06915058 33.79800653 2.5903385 33.39451734 -4 36 C-4 36.66 -4 37.32 -4 38 C-4.99 38 -5.98 38 -7 38 C-7 38.66 -7 39.32 -7 40 C-8.65 39.67 -10.3 39.34 -12 39 C-12 39.99 -12 40.98 -12 42 C-13.65 41.67 -15.3 41.34 -17 41 C-17 40.34 -17 39.68 -17 39 C-18.485 39.495 -18.485 39.495 -20 40 C-20.66 39.67 -21.32 39.34 -22 39 C-22 39.99 -22 40.98 -22 42 C-23.45880109 41.85892253 -24.91703551 41.71197585 -26.375 41.5625 C-27.18710938 41.48128906 -27.99921875 41.40007812 -28.8359375 41.31640625 C-31 41 -31 41 -33 40 C-32.67 38.35 -32.34 36.7 -32 35 C-30.515 34.505 -30.515 34.505 -29 34 C-27.0549 31.08235 -26.54723683 29.37462715 -26 26 C-26.66 26 -27.32 26 -28 26 C-28 25.01 -28 24.02 -28 23 C-28.99 23 -29.98 23 -31 23 C-7.26415616 -1.35147091 -7.26415616 -1.35147091 0 0 Z " fill="#D54951" transform="translate(95,67)"/>
<path d="M0 0 C1 4 2 8 3 12 C3.66 12 4.32 12 5 12 C5 12.66 5 13.32 5 14 C6.155 13.79375 7.31 13.5875 8.5 13.375 C13.10626876 12.77453996 16.58291388 13.65909885 21 15 C21 14.34 21 13.68 21 13 C23.97 13.33 26.94 13.66 30 14 C30.73526277 15.97184108 31.46977214 17.94396869 32.19921875 19.91796875 C33.0060735 22.09471028 33.0060735 22.09471028 34.1875 24.5 C34.99357087 26.98021807 35.03204442 28.49561905 34.9375 31.0625 C34.7146543 34.82202254 34.7146543 34.82202254 36.09375 37.203125 C38.81115563 39.76461391 40.88370901 39.56829895 44.5625 39.6875 C50.86698912 39.93349456 50.86698912 39.93349456 53 41 C53 41.66 53 42.32 53 43 C53.99 43 54.98 43 56 43 C56.495 46.96 56.495 46.96 57 51 C57.99 51 58.98 51 60 51 C59.45144652 55.571279 58.58255197 59.67435795 57 64 C53.0833428 60.736119 52.3606337 57.8075724 51 53 C50.01 52.67 49.02 52.34 48 52 C48 50.02 48 48.04 48 46 C42.70029249 44.04141244 38.90323908 43.99380021 33.33203125 44.90625 C30.5962383 45.01623163 29.27203006 44.49117716 27 43 C26.67 42.34 26.34 41.68 26 41 C25.34 41 24.68 41 24 41 C24 40.01 24 39.02 24 38 C23.34 38 22.68 38 22 38 C22 37.34 22 36.68 22 36 C22.99 36 23.98 36 25 36 C25 35.34 25 34.68 25 34 C26.29233607 32.62689293 27.62437146 31.28965176 29 30 C28.01 30 27.02 30 26 30 C25.7525 29.030625 25.505 28.06125 25.25 27.0625 C24.8375 26.051875 24.425 25.04125 24 24 C21.96756452 23.03122943 21.96756452 23.03122943 20 23 C19.67 23.99 19.34 24.98 19 26 C18.34 25.67 17.68 25.34 17 25 C16.375 22.9375 16.375 22.9375 16 21 C15.29875 21.391875 14.5975 21.78375 13.875 22.1875 C11 23 11 23 8 21.6875 C7.01 21.130625 6.02 20.57375 5 20 C2.26427415 19.30092586 2.26427415 19.30092586 0 19 C-0.0825 18.21625 -0.165 17.4325 -0.25 16.625 C-0.4975 15.75875 -0.745 14.8925 -1 14 C-2.32467746 13.3162955 -3.65863633 12.65035814 -5 12 C-5.70211894 10.34795544 -6.36971413 8.68076231 -7 7 C-7.99 6.34 -8.98 5.68 -10 5 C-8.90241493 4.15801693 -7.79664683 3.32669329 -6.6875 2.5 C-6.07261719 2.0359375 -5.45773438 1.571875 -4.82421875 1.09375 C-3 0 -3 0 0 0 Z " fill="#171717" transform="translate(144,117)"/>
<path d="M0 0 C0.66 0 1.32 0 2 0 C2.125 5.75 2.125 5.75 1 8 C0.34 8 -0.32 8 -1 8 C-1.20625 8.804375 -1.4125 9.60875 -1.625 10.4375 C-2.07875 11.283125 -2.5325 12.12875 -3 13 C-6.125 13.8125 -6.125 13.8125 -9 14 C-9.66 16.64 -10.32 19.28 -11 22 C-10.34 22.33 -9.68 22.66 -9 23 C-9 23.66 -9 24.32 -9 25 C-8.34 25 -7.68 25 -7 25 C-7 25.66 -7 26.32 -7 27 C-3.7 27.33 -0.4 27.66 3 28 C3 27.34 3 26.68 3 26 C7.455 26.99 7.455 26.99 12 28 C12 31 12 31 10.71484375 32.421875 C7.23009945 35.02585975 5.75252868 36.03762643 1.25 35.8125 C0.1775 35.544375 -0.895 35.27625 -2 35 C-2.99 35 -3.98 35 -5 35 C-6.33981486 34.6937566 -7.67511887 34.36548445 -9 34 C-9.33 34.66 -9.66 35.32 -10 36 C-12.32156597 36.40729228 -14.6568787 36.74438677 -17 37 C-17 37.66 -17 38.32 -17 39 C-17.66 39 -18.32 39 -19 39 C-19.66 38.34 -20.32 37.68 -21 37 C-22.98821313 36.60235737 -24.98944339 36.26224651 -27 36 C-27 35.34 -27 34.68 -27 34 C-26.01 33.505 -26.01 33.505 -25 33 C-25 32.34 -25 31.68 -25 31 C-26.27200971 32.10281127 -27.54255853 33.20730769 -28.8125 34.3125 C-29.87404297 35.23482422 -29.87404297 35.23482422 -30.95703125 36.17578125 C-32.70136739 37.73334335 -34.36778041 39.32658875 -36 41 C-36.66 40.67 -37.32 40.34 -38 40 C-37.28714844 39.2265625 -36.57429688 38.453125 -35.83984375 37.65625 C-34.87218967 36.60435628 -33.90475748 35.55225842 -32.9375 34.5 C-32.42872314 33.94683105 -31.91994629 33.39366211 -31.39575195 32.82373047 C-28.77404272 29.96497173 -26.19510712 27.08501047 -23.6875 24.125 C-18.65655741 18.31065029 -13.07230448 12.99485201 -7.60839844 7.59228516 C-5.39717531 5.40321453 -3.19815795 3.20218388 -1 1 C-0.67 0.67 -0.34 0.34 0 0 Z " fill="#3C1111" transform="translate(64,91)"/>
<path d="M0 0 C2.49361571 1.20381448 4.68143083 2.45428722 7 4 C3.55384615 8.8 3.55384615 8.8 0.75 9.8125 C0.1725 9.874375 -0.405 9.93625 -1 10 C-1.33 11.98 -1.66 13.96 -2 16 C-0.68 16 0.64 16 2 16 C2 15.01 2 14.02 2 13 C2.66 13 3.32 13 4 13 C4.33 14.65 4.66 16.3 5 18 C5.99 17.67 6.98 17.34 8 17 C10 19 10 19 10 22 C11.65 22 13.3 22 15 22 C15.33 22.66 15.66 23.32 16 24 C15.01 24 14.02 24 13 24 C13.185625 24.94875 13.37125 25.8975 13.5625 26.875 C14 30 14 30 13 32 C13.66 32.33 14.32 32.66 15 33 C13.28566742 34.8494376 11.55587991 36.67829108 9.8125 38.5 C9.32974609 39.02464844 8.84699219 39.54929688 8.34960938 40.08984375 C5.96681584 42.5525968 4.60252663 43.92766392 1.13671875 44.34375 C0.43160156 44.2303125 -0.27351563 44.116875 -1 44 C-1.33 44.99 -1.66 45.98 -2 47 C-2.66 47 -3.32 47 -4 47 C-5.0625 44.625 -5.0625 44.625 -6 42 C-5 40 -5 40 -1.9375 38.875 C-0.968125 38.58625 0.00125 38.2975 1 38 C1.33 36.35 1.66 34.7 2 33 C0.68 32.67 -0.64 32.34 -2 32 C-2.33 30.02 -2.66 28.04 -3 26 C-4.65 25.67 -6.3 25.34 -8 25 C-8.33 25.66 -8.66 26.32 -9 27 C-9 26.01 -9 25.02 -9 24 C-8.01 23.67 -7.02 23.34 -6 23 C-4.8040689 20.45062493 -4.28010862 17.79559391 -4 15 C-4.63474075 13.65117592 -5.29848848 12.3153341 -6 11 C-5.125 7.75 -5.125 7.75 -4 5 C-3.01 5 -2.02 5 -1 5 C-1 4.34 -1 3.68 -1 3 C-2.32 3 -3.64 3 -5 3 C-4.67 2.34 -4.34 1.68 -4 1 C-2.68 1.33 -1.36 1.66 0 2 C0 1.34 0 0.68 0 0 Z " fill="#C3363C" transform="translate(104,102)"/>
<path d="M0 0 C0.33 0 0.66 0 1 0 C1 11.88 1 23.76 1 36 C-10.88 36 -22.76 36 -35 36 C-32.05351148 34.52675574 -29.38330352 33.40533024 -26.3125 32.3125 C-15.77948315 28.10860078 -8.43792704 20.60944878 -3.75 10.375 C-2.33305659 6.96843189 -1.08551531 3.52792475 0 0 Z " fill="#F8F8F8" transform="translate(204,169)"/>
<path d="M0 0 C11.55 0 23.1 0 35 0 C35 12.21 35 24.42 35 37 C33.42597836 33.85195672 32.32898445 31.06267156 31.25 27.75 C27.24276076 16.64506765 19.48161405 9.50777353 9.22265625 4.03515625 C6.19412601 2.62468083 3.24961886 1.76054909 0 1 C0 0.67 0 0.34 0 0 Z " fill="#FDFDFD" transform="translate(170,0)"/>
<path d="M0 0 C12.87 0 25.74 0 39 0 C39 0.33 39 0.66 39 1 C38.17757812 1.14695313 37.35515625 1.29390625 36.5078125 1.4453125 C25.61649877 3.63363651 15.78029611 7.82198794 9 17 C3.78233417 26.03301842 3.78233417 26.03301842 1 36 C0.67 36 0.34 36 0 36 C0 24.12 0 12.24 0 0 Z " fill="#FDFDFD" transform="translate(0,0)"/>
<path d="M0 0 C1.10146168 2.20292337 2.185913 4.41571366 3.19140625 6.6640625 C9.57970895 20.45988429 17.42237675 27.04816515 31 33 C32.32 33.66 33.64 34.32 35 35 C23.45 35 11.9 35 0 35 C0 23.45 0 11.9 0 0 Z " fill="#F9F9F9" transform="translate(0,170)"/>
<path d="M0 0 C0.33 0.66 0.66 1.32 1 2 C0.67 2.66 0.34 3.32 0 4 C0.66 4 1.32 4 2 4 C2.25020862 7.00250341 2.22562095 8.61322124 0.6875 11.25 C-1 13 -1 13 -4 14 C-3.67 15.32 -3.34 16.64 -3 18 C-2.071875 17.95875 -1.14375 17.9175 -0.1875 17.875 C3 18 3 18 6 20 C6 19.01 6 18.02 6 17 C7.65 17 9.3 17 11 17 C11 17.66 11 18.32 11 19 C12.65 19.33 14.3 19.66 16 20 C16 19.01 16 18.02 16 17 C16.99 16.67 17.98 16.34 19 16 C19 16.66 19 17.32 19 18 C19.66 18 20.32 18 21 18 C21 17.34 21 16.68 21 16 C21.99 16 22.98 16 24 16 C24.33 15.34 24.66 14.68 25 14 C27.375 13.8125 27.375 13.8125 30 14 C30.66 14.99 31.32 15.98 32 17 C29.03 17.99 26.06 18.98 23 20 C23 20.99 23 21.98 23 23 C21.33388095 23.042721 19.66617115 23.04063832 18 23 C17.67 22.67 17.34 22.34 17 22 C16.773125 22.639375 16.54625 23.27875 16.3125 23.9375 C15 26 15 26 12.375 26.75 C11.199375 26.87375 11.199375 26.87375 10 27 C10 27.66 10 28.32 10 29 C8.68 28.67 7.36 28.34 6 28 C6 27.34 6 26.68 6 26 C4.824375 26.33 3.64875 26.66 2.4375 27 C-1.5011676 27.9969533 -4.95139129 28.16869203 -9 28 C-10.125 26.4375 -10.125 26.4375 -11 24 C-10.2811029 20.79261294 -9.47076629 17.94153258 -8 15 C-7.34 15 -6.68 15 -6 15 C-5.34 13.35 -4.68 11.7 -4 10 C-3.34 10 -2.68 10 -2 10 C-1.93941406 9.36191406 -1.87882812 8.72382812 -1.81640625 8.06640625 C-1.73261719 7.24011719 -1.64882812 6.41382812 -1.5625 5.5625 C-1.48128906 4.73878906 -1.40007812 3.91507812 -1.31640625 3.06640625 C-1 1 -1 1 0 0 Z " fill="#A22A2D" transform="translate(67,89)"/>
<path d="M0 0 C2.20703125 0.28125 2.20703125 0.28125 5.64453125 1.40625 C5.64453125 3.05625 5.64453125 4.70625 5.64453125 6.40625 C4.65453125 6.40625 3.66453125 6.40625 2.64453125 6.40625 C2.64453125 7.06625 2.64453125 7.72625 2.64453125 8.40625 C4.62453125 9.06625 6.60453125 9.72625 8.64453125 10.40625 C8.64453125 11.06625 8.64453125 11.72625 8.64453125 12.40625 C7.04197017 12.91137244 5.43741333 13.41016627 3.83203125 13.90625 C2.93871094 14.1846875 2.04539062 14.463125 1.125 14.75 C-1.35546875 15.40625 -1.35546875 15.40625 -4.35546875 15.40625 C-6.04345702 16.84375191 -6.04345702 16.84375191 -7.35546875 18.40625 C-7.02546875 19.06625 -6.69546875 19.72625 -6.35546875 20.40625 C-7.01546875 20.40625 -7.67546875 20.40625 -8.35546875 20.40625 C-8.02546875 21.39625 -7.69546875 22.38625 -7.35546875 23.40625 C-8.84046875 24.4271875 -8.84046875 24.4271875 -10.35546875 25.46875 C-12.05502609 26.77280729 -12.05502609 26.77280729 -13.35546875 28.40625 C-13.85743169 32.11698505 -13.85743169 32.11698505 -13.35546875 35.40625 C-16.74240139 30.32585104 -18.18225788 25.50381985 -17.35546875 19.40625 C-15.73181005 16.09719653 -13.62495118 13.30018961 -11.35546875 10.40625 C-10.65550781 9.47167969 -9.95554687 8.53710938 -9.234375 7.57421875 C-3.62682542 0.62552213 -3.62682542 0.62552213 0 0 Z " fill="#171616" transform="translate(17.35546875,143.59375)"/>
<path d="M0 0 C2.97 0.33 5.94 0.66 9 1 C8.79375 1.928125 8.5875 2.85625 8.375 3.8125 C7.63307034 7.15173402 7.63307034 7.15173402 10 10 C9.67 10.66 9.34 11.32 9 12 C12.63 12.33 16.26 12.66 20 13 C19.835 13.886875 19.67 14.77375 19.5 15.6875 C19.07004243 18.53596892 18.91558965 21.13004802 19 24 C22.92857754 25.85131483 25.98775112 26.22004943 30.3125 26.125 C32.189375 26.08375 34.06625 26.0425 36 26 C36 30.95 36 35.9 36 41 C34.68 40.67 33.36 40.34 32 40 C30.64560332 37.29120665 30.93498549 34.99066732 31 32 C30.01 32 29.02 32 28 32 C28 31.34 28 30.68 28 30 C26.44539063 29.97873047 26.44539063 29.97873047 24.859375 29.95703125 C23.48953943 29.91011907 22.11974913 29.86187173 20.75 29.8125 C20.06808594 29.80669922 19.38617188 29.80089844 18.68359375 29.79492188 C14.96151794 29.63230691 13.28057268 29.26068958 10.51953125 26.6953125 C8.77463426 23.600251 8.85793538 21.47609808 9.0546875 17.98046875 C8.96969489 14.90252205 7.44862758 12.66547474 6 10 C5.3125 6.625 5.3125 6.625 5 4 C4.360625 3.896875 3.72125 3.79375 3.0625 3.6875 C2.381875 3.460625 1.70125 3.23375 1 3 C0.67 2.01 0.34 1.02 0 0 Z " fill="#5B5B5B" transform="translate(169,128)"/>
<path d="M0 0 C0 2.31 0 4.62 0 7 C0.99 7 1.98 7 3 7 C3 7.66 3 8.32 3 9 C1.68 9 0.36 9 -1 9 C2.3 9.66 5.6 10.32 9 11 C9 11.66 9 12.32 9 13 C9.66 13.33 10.32 13.66 11 14 C10.01 14.66 9.02 15.32 8 16 C7.01 15.67 6.02 15.34 5 15 C4.67 15.66 4.34 16.32 4 17 C1.67843403 17.40729228 -0.6568787 17.74438677 -3 18 C-3 18.66 -3 19.32 -3 20 C-3.66 20 -4.32 20 -5 20 C-5.66 19.34 -6.32 18.68 -7 18 C-8.98821313 17.60235737 -10.98944339 17.26224651 -13 17 C-13 16.34 -13 15.68 -13 15 C-12.34 14.67 -11.68 14.34 -11 14 C-11 13.34 -11 12.68 -11 12 C-12.27200971 13.10281127 -13.54255853 14.20730769 -14.8125 15.3125 C-15.87404297 16.23482422 -15.87404297 16.23482422 -16.95703125 17.17578125 C-18.70136739 18.73334335 -20.36778041 20.32658875 -22 22 C-22.66 21.67 -23.32 21.34 -24 21 C-23.27554687 20.21496094 -22.55109375 19.42992187 -21.8046875 18.62109375 C-20.82794043 17.56006572 -19.85139085 16.49885585 -18.875 15.4375 C-18.370896 14.8904541 -17.86679199 14.3434082 -17.34741211 13.77978516 C-14.67530546 10.86875162 -12.07183825 7.92900081 -9.5625 4.875 C-6.46870761 1.40391586 -4.67146712 0 0 0 Z " fill="#1D0A0A" transform="translate(50,110)"/>
<path d="M0 0 C4.9620816 1.21295328 8.085694 3.71019889 11.11328125 7.78125 C11.77714844 8.9053125 12.44101563 10.029375 13.125 11.1875 C13.80175781 12.3115625 14.47851562 13.435625 15.17578125 14.59375 C16.48447474 17.0674618 17.35146708 18.96139229 17.8125 21.6875 C14.9375 21.4375 14.9375 21.4375 11.8125 20.6875 C10.4375 18.625 10.4375 18.625 9.8125 16.6875 C8.8225 16.6875 7.8325 16.6875 6.8125 16.6875 C6.4825 17.3475 6.1525 18.0075 5.8125 18.6875 C5.1525 18.6875 4.4925 18.6875 3.8125 18.6875 C3.8125 18.0275 3.8125 17.3675 3.8125 16.6875 C3.1525 16.6875 2.4925 16.6875 1.8125 16.6875 C1.8125 16.0275 1.8125 15.3675 1.8125 14.6875 C0.8225 14.3575 -0.1675 14.0275 -1.1875 13.6875 C-0.5275 12.6975 0.1325 11.7075 0.8125 10.6875 C1.8025 11.0175 2.7925 11.3475 3.8125 11.6875 C3.4825 11.0275 3.1525 10.3675 2.8125 9.6875 C1.15635343 9.30531233 -0.51207024 8.97354898 -2.1875 8.6875 C-2.8475 8.3575 -3.5075 8.0275 -4.1875 7.6875 C-5.86404729 7.96692455 -7.53358154 8.29578247 -9.1875 8.6875 C-9.5175 9.6775 -9.8475 10.6675 -10.1875 11.6875 C-12.4975 12.0175 -14.8075 12.3475 -17.1875 12.6875 C-6.60776826 1.42520492 -6.60776826 1.42520492 0 0 Z " fill="#D64851" transform="translate(150.1875,105.3125)"/>
<path d="M0 0 C1.32 0.33 2.64 0.66 4 1 C3.649375 2.0725 3.29875 3.145 2.9375 4.25 C2.05319814 7.78720743 1.97119449 8.74811124 3 12 C3.74765625 11.855625 4.4953125 11.71125 5.265625 11.5625 C6.25046875 11.376875 7.2353125 11.19125 8.25 11 C9.22453125 10.814375 10.1990625 10.62875 11.203125 10.4375 C14 10 14 10 18 10 C18.33 10.66 18.66 11.32 19 12 C19.99 12.33 20.98 12.66 22 13 C22 12.34 22 11.68 22 11 C22.78375 10.7525 23.5675 10.505 24.375 10.25 C27.32317108 8.84610901 27.9024777 7.99324263 29 5 C29.495 5.99 29.495 5.99 30 7 C30.825 6.21625 31.65 5.4325 32.5 4.625 C37.1346265 0.74816788 41.99713589 0 48 0 C48 0.66 48 1.32 48 2 C47.01 2.33 46.02 2.66 45 3 C43.9910966 7.23646767 43.9910966 7.23646767 44.9375 11.375 C45.4634375 12.179375 45.4634375 12.179375 46 13 C45.34 13.66 44.68 14.32 44 15 C42.0625 14.875 42.0625 14.875 40 14 C38.96460496 12.69396214 37.96017182 11.36229507 37 10 C36.31292969 10.2165625 35.62585938 10.433125 34.91796875 10.65625 C34.01691406 10.9346875 33.11585937 11.213125 32.1875 11.5 C31.29417969 11.7784375 30.40085938 12.056875 29.48046875 12.34375 C27 13 27 13 24 13 C23.01 14.485 23.01 14.485 22 16 C17.05 14.02 17.05 14.02 12 12 C12 12.66 12 13.32 12 14 C4.25 14.125 4.25 14.125 2 13 C2 12.34 2 11.68 2 11 C1.34 11 0.68 11 0 11 C-2 9 -2 9 -3 7 C-2.06421005 4.64018187 -1.06652192 2.30368736 0 0 Z " fill="#4F1515" transform="translate(55,105)"/>
<path d="M0 0 C0.33 1.32 0.66 2.64 1 4 C1.598125 4.0825 2.19625 4.165 2.8125 4.25 C5.599343 5.20548903 6.32876986 6.6450848 8 9 C8.66 9 9.32 9 10 9 C10 10.32 10 11.64 10 13 C11.44197868 14.44197868 13.17691571 15.11786244 15 16 C14.34 16 13.68 16 13 16 C12.40267181 18.76264289 12 21.16032769 12 24 C10.3125 26.1875 10.3125 26.1875 8 28 C5.25 28.25 5.25 28.25 3 28 C2.67 28.99 2.34 29.98 2 31 C1.34 31 0.68 31 0 31 C-1.0625 28.625 -1.0625 28.625 -2 26 C-1 24 -1 24 2.0625 22.875 C3.031875 22.58625 4.00125 22.2975 5 22 C5.33 20.35 5.66 18.7 6 17 C4.68 16.67 3.36 16.34 2 16 C1.67 14.02 1.34 12.04 1 10 C-0.65 9.67 -2.3 9.34 -4 9 C-4.33 9.66 -4.66 10.32 -5 11 C-5 10.01 -5 9.02 -5 8 C-4.01 7.67 -3.02 7.34 -2 7 C-0.77030122 3.48809191 -0.77030122 3.48809191 0 0 Z " fill="#952729" transform="translate(100,118)"/>
<path d="M0 0 C2.875 0.5625 2.875 0.5625 6 2 C7.25 5.3125 7.25 5.3125 8 9 C8.556875 10.2065625 8.556875 10.2065625 9.125 11.4375 C9.99124988 13.97437466 10.03940136 15.4324743 9.9375 18.0625 C9.7146543 21.82202254 9.7146543 21.82202254 11.09375 24.203125 C13.81115563 26.76461391 15.88370901 26.56829895 19.5625 26.6875 C25.86698912 26.93349456 25.86698912 26.93349456 28 28 C28 28.66 28 29.32 28 30 C28.99 30 29.98 30 31 30 C31.33 32.64 31.66 35.28 32 38 C32.99 38 33.98 38 35 38 C34.25 44.625 34.25 44.625 32 48 C31.71125 47.030625 31.4225 46.06125 31.125 45.0625 C30.35785318 41.89335797 30.35785318 41.89335797 28 41 C26.58208069 37.33009119 25.77579512 33.87897558 25 30 C19.72 29.01 14.44 28.02 9 27 C9 26.01 9 25.02 9 24 C8.34 24 7.68 24 7 24 C7 19.38 7 14.76 7 10 C6.34 10 5.68 10 5 10 C5 9.01 5 8.02 5 7 C4.34 7 3.68 7 3 7 C3 5.35 3 3.7 3 2 C2.01 2 1.02 2 0 2 C0 1.34 0 0.68 0 0 Z " fill="#343334" transform="translate(169,130)"/>
<path d="M0 0 C1.74627478 2.61941217 2.38722388 4.03824877 3 7 C4.32 7.33 5.64 7.66 7 8 C5.875 10.5 5.875 10.5 4 13 C0.8125 13.3125 0.8125 13.3125 -2 13 C-2.66 14.32 -3.32 15.64 -4 17 C-4.66 17 -5.32 17 -6 17 C-6 16.01 -6 15.02 -6 14 C-6.66 14 -7.32 14 -8 14 C-8 13.34 -8 12.68 -8 12 C-9.32 12.33 -10.64 12.66 -12 13 C-11.67 12.01 -11.34 11.02 -11 10 C-11.99 9.67 -12.98 9.34 -14 9 C-13.67 7.68 -13.34 6.36 -13 5 C-11.96875 4.855625 -10.9375 4.71125 -9.875 4.5625 C-6.57450187 4.08339543 -3.28731659 3.56124917 0 3 C0 2.01 0 1.02 0 0 Z " fill="#320E0D" transform="translate(92,112)"/>
<path d="M0 0 C0.99 0 1.98 0 3 0 C4 4 5 8 6 12 C6.66 12 7.32 12 8 12 C8 12.66 8 13.32 8 14 C9.155 13.79375 10.31 13.5875 11.5 13.375 C16.10626876 12.77453996 19.58291388 13.65909885 24 15 C24 14.34 24 13.68 24 13 C25.32 13 26.64 13 28 13 C28 13.66 28 14.32 28 15 C28.99 15 29.98 15 31 15 C31 16.32 31 17.64 31 19 C29.00045254 19.04254356 26.99958364 19.04080783 25 19 C24.67 18.67 24.34 18.34 24 18 C22.47459469 18.14570148 20.95398058 18.34255244 19.4375 18.5625 C14.41905852 19.14016233 10.79432803 18.50932549 6 17 C6 16.34 6 15.68 6 15 C5.360625 14.773125 4.72125 14.54625 4.0625 14.3125 C2 13 2 13 1.25 10.75 C0.9832677 7.81594472 0.93152102 4.94459603 1 2 C0.34 1.67 -0.32 1.34 -1 1 C-0.67 0.67 -0.34 0.34 0 0 Z " fill="#471314" transform="translate(141,117)"/>
<path d="M0 0 C2.0625 0.4375 2.0625 0.4375 4 1 C5.125 6.625 5.125 6.625 4 10 C5.2065625 9.7215625 5.2065625 9.7215625 6.4375 9.4375 C13.08410445 8.62125033 19.73940213 9.6522758 26 12 C26.33 12.99 26.66 13.98 27 15 C25.35 15 23.7 15 22 15 C22 15.66 22 16.32 22 17 C16.72 16.67 11.44 16.34 6 16 C6 15.34 6 14.68 6 14 C5.34 14 4.68 14 4 14 C1.58314288 9.77050005 0.65166856 6.87664009 1 2 C0.34 1.67 -0.32 1.34 -1 1 C-0.67 0.67 -0.34 0.34 0 0 Z " fill="#C0363B" transform="translate(143,115)"/>
<path d="M0 0 C0.33 0.66 0.66 1.32 1 2 C0.67 2.66 0.34 3.32 0 4 C0.66 4 1.32 4 2 4 C2.25020862 7.00250341 2.22562095 8.61322124 0.6875 11.25 C-1 13 -1 13 -4 14 C-3.67 15.32 -3.34 16.64 -3 18 C-2.071875 17.95875 -1.14375 17.9175 -0.1875 17.875 C3 18 3 18 6 20 C6 19.01 6 18.02 6 17 C7.65 17 9.3 17 11 17 C11.33 18.65 11.66 20.3 12 22 C11.30132812 22.06058594 10.60265625 22.12117188 9.8828125 22.18359375 C8.97273438 22.26738281 8.06265625 22.35117188 7.125 22.4375 C6.22007813 22.51871094 5.31515625 22.59992188 4.3828125 22.68359375 C1.98889139 22.86989285 1.98889139 22.86989285 0 24 C-1.67654729 23.72057545 -3.34608154 23.39171753 -5 23 C-5 23.66 -5 24.32 -5 25 C-5.99 24.67 -6.98 24.34 -8 24 C-9.125 17.25 -9.125 17.25 -8 15 C-7.34 15 -6.68 15 -6 15 C-5.34 13.35 -4.68 11.7 -4 10 C-3.34 10 -2.68 10 -2 10 C-1.93941406 9.36191406 -1.87882812 8.72382812 -1.81640625 8.06640625 C-1.73261719 7.24011719 -1.64882812 6.41382812 -1.5625 5.5625 C-1.48128906 4.73878906 -1.40007812 3.91507812 -1.31640625 3.06640625 C-1 1 -1 1 0 0 Z " fill="#BA353A" transform="translate(67,89)"/>
<path d="M0 0 C0.33 1.65 0.66 3.3 1 5 C1.4125 4.484375 1.825 3.96875 2.25 3.4375 C3.11625 2.7259375 3.11625 2.7259375 4 2 C6.109375 2.41015625 6.109375 2.41015625 8 3 C6.0952092 5.01260914 4.17769837 7.00953936 2.25 9 C1.44175781 9.85851562 1.44175781 9.85851562 0.6171875 10.734375 C-0.84648314 12.23374492 -2.41955166 13.62427295 -4 15 C-5.32 15 -6.64 15 -8 15 C-8 3.5 -8 3.5 -7 0 C-3.98968256 -0.93423645 -3.13349732 -1.04449911 0 0 Z " fill="#531515" transform="translate(99,144)"/>
<path d="M0 0 C2.97 0.33 5.94 0.66 9 1 C8.79375 1.928125 8.5875 2.85625 8.375 3.8125 C7.63307034 7.15173402 7.63307034 7.15173402 10 10 C9.67 10.66 9.34 11.32 9 12 C12.63 12.33 16.26 12.66 20 13 C19.835 13.886875 19.67 14.77375 19.5 15.6875 C19.07004243 18.53596892 18.91558965 21.13004802 19 24 C20.65 24.66 22.3 25.32 24 26 C24 26.33 24 26.66 24 27 C21.03 27 18.06 27 15 27 C14.67 25.35 14.34 23.7 14 22 C13.01 22 12.02 22 11 22 C11.268125 21.113125 11.53625 20.22625 11.8125 19.3125 C11.9053125 17.6728125 11.9053125 17.6728125 12 16 C10.3777546 14.29006566 8.70586575 12.62652316 7 11 C6.02412119 8.66764965 5.53648331 6.48733171 5 4 C4.360625 3.896875 3.72125 3.79375 3.0625 3.6875 C2.381875 3.460625 1.70125 3.23375 1 3 C0.67 2.01 0.34 1.02 0 0 Z " fill="#858485" transform="translate(169,128)"/>
<path d="M0 0 C2.43105861 2.54397664 5 5.3749727 5 9 C1.04 9.99 -2.92 10.98 -7 12 C-7 11.34 -7 10.68 -7 10 C-7.66 9.67 -8.32 9.34 -9 9 C-9 8.01 -9 7.02 -9 6 C-10.32 6.33 -11.64 6.66 -13 7 C-9.51889586 2.27564438 -6.25300189 -1.37261017 0 0 Z " fill="#D0636B" transform="translate(95,67)"/>
<path d="M0 0 C0.03867188 0.90492187 0.03867188 0.90492187 0.078125 1.828125 C0.37388587 7.06981501 0.37388587 7.06981501 3.0625 11.4375 C3.701875 11.953125 4.34125 12.46875 5 13 C5 13.66 5 14.32 5 15 C11.32629569 15.90375653 16.67370431 15.90375653 23 15 C23.33 15.66 23.66 16.32 24 17 C22.35 17 20.7 17 19 17 C18.67 17.66 18.34 18.32 18 19 C15.8125 20.3125 15.8125 20.3125 13 21 C10 19.6875 10 19.6875 7 18 C4.26427415 17.30092586 4.26427415 17.30092586 2 17 C1.9175 16.21625 1.835 15.4325 1.75 14.625 C1.5025 13.75875 1.255 12.8925 1 12 C-0.32467746 11.3162955 -1.65863633 10.65035814 -3 10 C-3.70211894 8.34795544 -4.36971413 6.68076231 -5 5 C-5.99 4.34 -6.98 3.68 -8 3 C-3.375 0 -3.375 0 0 0 Z " fill="#2A0C0C" transform="translate(142,119)"/>
<path d="M0 0 C0.33 0 0.66 0 1 0 C1 1.65 1 3.3 1 5 C-0.32 5.33 -1.64 5.66 -3 6 C-2.05125 6.20625 -1.1025 6.4125 -0.125 6.625 C0.90625 7.07875 1.9375 7.5325 3 8 C4.1875 11.0625 4.1875 11.0625 5 14 C5.99 14.33 6.98 14.66 8 15 C8.125 17.375 8.125 17.375 8 20 C7.34 20.66 6.68 21.32 6 22 C3.875 21.625 3.875 21.625 2 21 C2.66 21 3.32 21 4 21 C3.73323796 19.01508358 3.73323796 19.01508358 3 17 C2.01 16.67 1.02 16.34 0 16 C0 14.68 0 13.36 0 12 C-0.928125 12.061875 -1.85625 12.12375 -2.8125 12.1875 C-6 12 -6 12 -7.875 10.5 C-8.24625 10.005 -8.6175 9.51 -9 9 C-8.3125 7.0625 -8.3125 7.0625 -7 5 C-4.5 4.5 -4.5 4.5 -2 4 C-0.63979849 2.03241727 -0.63979849 2.03241727 0 0 Z " fill="#62191A" transform="translate(98,120)"/>
<path d="M0 0 C0 0.99 0 1.98 0 3 C0.66 3 1.32 3 2 3 C2.125 10.75 2.125 10.75 1 13 C0.01 12.67 -0.98 12.34 -2 12 C-1.67 11.34 -1.34 10.68 -1 10 C-1.99 10 -2.98 10 -4 10 C-4.2475 9.030625 -4.495 8.06125 -4.75 7.0625 C-5.1625 6.051875 -5.575 5.04125 -6 4 C-8.03243548 3.03122943 -8.03243548 3.03122943 -10 3 C-10.33 3.99 -10.66 4.98 -11 6 C-11.66 5.67 -12.32 5.34 -13 5 C-12.67 3.02 -12.34 1.04 -12 -1 C-7.54187984 -2.14637376 -4.15590845 -2.07795422 0 0 Z " fill="#1A1212" transform="translate(174,137)"/>
<path d="M0 0 C0.578125 1.859375 0.578125 1.859375 1 4 C-0.25 6.25 -0.25 6.25 -2 8 C-2.99 8 -3.98 8 -5 8 C-5.33 10.31 -5.66 12.62 -6 15 C-6.99 15.33 -7.98 15.66 -9 16 C-9.12375 17.03125 -9.2475 18.0625 -9.375 19.125 C-9.93889814 22.62116846 -10.78682059 25.68397627 -12 29 C-14.37620737 25.28717598 -14.56893394 22.3381213 -14 18 C-10.59975848 11.1620143 -5.1621438 5.54209855 0 0 Z " fill="#313131" transform="translate(14,145)"/>
<path d="M0 0 C2.89696854 0.36982577 5.37621929 0.68810965 8 2 C8.70211894 3.65204456 9.36971413 5.31923769 10 7 C10.33 7.33 10.66 7.66 11 8 C11.04063832 9.66617115 11.042721 11.33388095 11 13 C12.32 13.66 13.64 14.32 15 15 C15 17.64 15 20.28 15 23 C11.0833428 19.736119 10.3606337 16.8075724 9 12 C8.01 11.67 7.02 11.34 6 11 C6 9.02 6 7.04 6 5 C5.21625 4.71125 4.4325 4.4225 3.625 4.125 C1 3 1 3 -1 1 C-0.67 0.67 -0.34 0.34 0 0 Z " fill="#151414" transform="translate(186,158)"/>
<path d="M0 0 C0 3 0 3 -2 6 C-2.66 6 -3.32 6 -4 6 C-4 6.66 -4 7.32 -4 8 C-2.35 8 -0.7 8 1 8 C1 8.66 1 9.32 1 10 C1.99 10.33 2.98 10.66 4 11 C3.34 11.66 2.68 12.32 2 13 C1.01 13 0.02 13 -1 13 C-1.33 13.66 -1.66 14.32 -2 15 C-3.32 15 -4.64 15 -6 15 C-6 14.34 -6 13.68 -6 13 C-5.34 12.67 -4.68 12.34 -4 12 C-4 11.34 -4 10.68 -4 10 C-5.27200971 11.10281127 -6.54255853 12.20730769 -7.8125 13.3125 C-8.52019531 13.92738281 -9.22789063 14.54226562 -9.95703125 15.17578125 C-11.70136739 16.73334335 -13.36778041 18.32658875 -15 20 C-15.66 19.67 -16.32 19.34 -17 19 C-16.27554687 18.21496094 -15.55109375 17.42992187 -14.8046875 16.62109375 C-9.77371983 11.15805576 -4.78086039 5.68534749 0 0 Z " fill="#281A1A" transform="translate(43,112)"/>
<path d="M0 0 C0 0.66 0 1.32 0 2 C0.5775 1.855625 1.155 1.71125 1.75 1.5625 C3.83333333 1.04166667 5.91666667 0.52083333 8 0 C8.66 2.31 9.32 4.62 10 7 C10.99 7 11.98 7 13 7 C13.33 7.99 13.66 8.98 14 10 C13.01 10.495 13.01 10.495 12 11 C12 10.34 12 9.68 12 9 C11.38125 9.185625 10.7625 9.37125 10.125 9.5625 C8 10 8 10 6 9 C6 7.68 6 6.36 6 5 C4.576875 5.5259375 4.576875 5.5259375 3.125 6.0625 C0 7 0 7 -2 6 C-2 5.34 -2 4.68 -2 4 C-3.65 4 -5.3 4 -7 4 C-4.83989616 0.75984424 -3.8842653 0 0 0 Z " fill="#240A0A" transform="translate(83,131)"/>
<path d="M0 0 C2.46800047 1.15173355 4.04783565 2.04783565 6 4 C5.67 2.68 5.34 1.36 5 0 C7.31 0.33 9.62 0.66 12 1 C12 1.99 12 2.98 12 4 C11.38125 4.2475 10.7625 4.495 10.125 4.75 C7.64931313 6.20628639 7.04874998 7.37812506 6 10 C5.34 10 4.68 10 4 10 C4 9.01 4 8.02 4 7 C3.34 7 2.68 7 2 7 C2 6.34 2 5.68 2 5 C0.68 5.33 -0.64 5.66 -2 6 C-1.67 5.01 -1.34 4.02 -1 3 C-1.66 2.67 -2.32 2.34 -3 2 C-2.01 2 -1.02 2 0 2 C0 1.34 0 0.68 0 0 Z " fill="#230B0A" transform="translate(82,119)"/>
<path d="M0 0 C2.49361571 1.20381448 4.68143083 2.45428722 7 4 C3.67692308 8.8 3.67692308 8.8 0.25 9.8125 C-0.4925 9.874375 -1.235 9.93625 -2 10 C-2 10.99 -2 11.98 -2 13 C-2.66 13.66 -3.32 14.32 -4 15 C-5.125 13.375 -5.125 13.375 -6 11 C-5.125 7.75 -5.125 7.75 -4 5 C-3.01 5 -2.02 5 -1 5 C-1 4.34 -1 3.68 -1 3 C-2.32 3 -3.64 3 -5 3 C-4.67 2.34 -4.34 1.68 -4 1 C-2.68 1.33 -1.36 1.66 0 2 C0 1.34 0 0.68 0 0 Z " fill="#AF3236" transform="translate(104,102)"/>
<path d="M0 0 C2.875 -0.1875 2.875 -0.1875 6 0 C6.66 0.99 7.32 1.98 8 3 C5.03 3.99 2.06 4.98 -1 6 C-1 6.99 -1 7.98 -1 9 C-2.65 9 -4.3 9 -6 9 C-6 8.34 -6 7.68 -6 7 C-6.99 7 -7.98 7 -9 7 C-9 7.66 -9 8.32 -9 9 C-9.99 9 -10.98 9 -12 9 C-12 7.68 -12 6.36 -12 5 C-10.68 5.33 -9.36 5.66 -8 6 C-8 5.01 -8 4.02 -8 3 C-7.01 2.67 -6.02 2.34 -5 2 C-5 2.66 -5 3.32 -5 4 C-4.34 4 -3.68 4 -3 4 C-3 3.34 -3 2.68 -3 2 C-2.01 2 -1.02 2 0 2 C0 1.34 0 0.68 0 0 Z " fill="#AD3236" transform="translate(91,103)"/>
<path d="M0 0 C0 0.66 0 1.32 0 2 C-0.99 2.33 -1.98 2.66 -3 3 C-4.22520264 6.00847418 -4.22520264 6.00847418 -5 9 C-5.99 9 -6.98 9 -8 9 C-7.67 7.35 -7.34 5.7 -7 4 C-7.66 4 -8.32 4 -9 4 C-9 4.66 -9 5.32 -9 6 C-9.99 6 -10.98 6 -12 6 C-12 6.66 -12 7.32 -12 8 C-14.64 8.33 -17.28 8.66 -20 9 C-19.67 7.68 -19.34 6.36 -19 5 C-18.67 5.66 -18.34 6.32 -18 7 C-17.175 6.21625 -16.35 5.4325 -15.5 4.625 C-10.8653735 0.74816788 -6.00286411 0 0 0 Z " fill="#651C1C" transform="translate(103,105)"/>
<path d="M0 0 C0.33 0.66 0.66 1.32 1 2 C3.35599235 2.46751788 3.35599235 2.46751788 6.0625 2.625 C7.44115234 2.73714844 7.44115234 2.73714844 8.84765625 2.8515625 C9.55792969 2.90054688 10.26820312 2.94953125 11 3 C11 2.34 11 1.68 11 1 C12.48117801 1.28127421 13.95993249 1.57533732 15.4375 1.875 C16.26121094 2.03742188 17.08492187 2.19984375 17.93359375 2.3671875 C18.61550781 2.57601562 19.29742187 2.78484375 20 3 C20.33 3.66 20.66 4.32 21 5 C17.92382812 5.29296875 17.92382812 5.29296875 14.84765625 5.5859375 C14.23792969 5.72257812 13.62820312 5.85921875 13 6 C12.67 6.66 12.34 7.32 12 8 C10.02 8 8.04 8 6 8 C6 7.34 6 6.68 6 6 C3.69 5.01 1.38 4.02 -1 3 C-0.67 2.01 -0.34 1.02 0 0 Z " fill="#4D1414" transform="translate(56,116)"/>
<path d="M0 0 C1.32 0.33 2.64 0.66 4 1 C3.649375 2.0725 3.29875 3.145 2.9375 4.25 C2.05319814 7.78720743 1.97119449 8.74811124 3 12 C3.74765625 11.855625 4.4953125 11.71125 5.265625 11.5625 C6.25046875 11.376875 7.2353125 11.19125 8.25 11 C9.22453125 10.814375 10.1990625 10.62875 11.203125 10.4375 C14 10 14 10 18 10 C17.67 10.99 17.34 11.98 17 13 C14.525 12.505 14.525 12.505 12 12 C12 12.66 12 13.32 12 14 C4.25 14.125 4.25 14.125 2 13 C2 12.34 2 11.68 2 11 C1.34 11 0.68 11 0 11 C-2 9 -2 9 -3 7 C-2.06421005 4.64018187 -1.06652192 2.30368736 0 0 Z " fill="#771E1F" transform="translate(55,105)"/>
<path d="M0 0 C0.125 5.75 0.125 5.75 -1 8 C-1.66 8 -2.32 8 -3 8 C-3.66 9.65 -4.32 11.3 -5 13 C-6.32 13 -7.64 13 -9 13 C-9.75 10.8125 -9.75 10.8125 -10 8 C-7.7341418 4.47533168 -4.53295196 0 0 0 Z " fill="#2B0E0D" transform="translate(66,91)"/>
<path d="M0 0 C2.0528815 0.59488175 2.0528815 0.59488175 3.98828125 -0.625 C6.33768655 -0.01739518 8.67357213 0.64629528 10.98828125 1.375 C10.98828125 1.705 10.98828125 2.035 10.98828125 2.375 C9.33828125 2.375 7.68828125 2.375 5.98828125 2.375 C5.98828125 3.035 5.98828125 3.695 5.98828125 4.375 C0.70828125 4.045 -4.57171875 3.715 -10.01171875 3.375 C-10.01171875 2.715 -10.01171875 2.055 -10.01171875 1.375 C-10.67171875 1.375 -11.33171875 1.375 -12.01171875 1.375 C-12.01171875 0.715 -12.01171875 0.055 -12.01171875 -0.625 C-7.61549076 -2.04313806 -4.32106838 -1.16196797 0 0 Z " fill="#AF2E31" transform="translate(159.01171875,127.625)"/>
<path d="M0 0 C2.475 0.99 2.475 0.99 5 2 C4.01 2.495 4.01 2.495 3 3 C2.34444881 5.52733235 2.34444881 5.52733235 2 8 C2.66 8 3.32 8 4 8 C4.33 7.34 4.66 6.68 5 6 C5.33 7.98 5.66 9.96 6 12 C12.93 12 19.86 12 27 12 C27 13.32 27 14.64 27 16 C25.783125 15.855625 24.56625 15.71125 23.3125 15.5625 C20.39233209 15.21840378 17.51751942 14.97907048 14.578125 14.8515625 C13.41796875 14.79742187 12.2578125 14.74328125 11.0625 14.6875 C9.40927734 14.63142578 9.40927734 14.63142578 7.72265625 14.57421875 C5 14 5 14 3.62109375 11.95703125 C3.41613281 11.31121094 3.21117187 10.66539062 3 10 C2.01 10 1.02 10 0 10 C0 6.7 0 3.4 0 0 Z " fill="#6D6D6E" transform="translate(178,142)"/>
<path d="M0 0 C2.875 0.5625 2.875 0.5625 6 2 C7.25 5.3125 7.25 5.3125 8 9 C8.556875 10.2065625 8.556875 10.2065625 9.125 11.4375 C9.99124988 13.97437466 10.03940136 15.4324743 9.9375 18.0625 C9.70141468 21.86645356 9.70141468 21.86645356 11.25 24.375 C13.06800558 26.06314804 14.71449731 27.05427475 17 28 C14.36 27.67 11.72 27.34 9 27 C9 26.01 9 25.02 9 24 C8.34 24 7.68 24 7 24 C7 19.38 7 14.76 7 10 C6.34 10 5.68 10 5 10 C5 9.01 5 8.02 5 7 C4.34 7 3.68 7 3 7 C3 5.35 3 3.7 3 2 C2.01 2 1.02 2 0 2 C0 1.34 0 0.68 0 0 Z " fill="#494949" transform="translate(169,130)"/>
<path d="M0 0 C0.66 0 1.32 0 2 0 C1.814375 1.11375 1.62875 2.2275 1.4375 3.375 C0.68319343 6.82568861 0.68319343 6.82568861 2 9 C1.71887936 11.00800456 1.38932033 13.01014051 1 15 C1.99 15.33 2.98 15.66 4 16 C3.34 16 2.68 16 2 16 C1.67 16.99 1.34 17.98 1 19 C-0.32 18.67 -1.64 18.34 -3 18 C-3.08150744 15.93816367 -3.1394194 13.87538651 -3.1875 11.8125 C-3.22230469 10.66394531 -3.25710937 9.51539063 -3.29296875 8.33203125 C-2.97436317 4.70842376 -2.21947332 2.85360856 0 0 Z " fill="#220A09" transform="translate(90,144)"/>
<path d="M0 0 C1.14947895 3.55293493 1.0868937 4.79976669 -0.4375 8.3125 C-1.2109375 9.6428125 -1.2109375 9.6428125 -2 11 C-1.34 11 -0.68 11 0 11 C0 11.99 0 12.98 0 14 C2.64 13.34 5.28 12.68 8 12 C8 12.66 8 13.32 8 14 C8.99 14.66 9.98 15.32 11 16 C5.158256 16.35050464 1.1468192 16.16727335 -4 13 C-4.02689216 11.52093108 -4.04634621 10.04172517 -4.0625 8.5625 C-4.07410156 7.73878906 -4.08570313 6.91507813 -4.09765625 6.06640625 C-4 4 -4 4 -3 3 C-3.66 2.34 -4.32 1.68 -5 1 C-2 0 -2 0 0 0 Z " fill="#B5B6B6" transform="translate(191,139)"/>
<path d="M0 0 C0 0.66 0 1.32 0 2 C-1.13179687 2.49371094 -2.26359375 2.98742187 -3.4296875 3.49609375 C-4.91147042 4.14320148 -6.3932406 4.79033841 -7.875 5.4375 C-8.62136719 5.76298828 -9.36773437 6.08847656 -10.13671875 6.42382812 C-10.85214844 6.73642578 -11.56757813 7.04902344 -12.3046875 7.37109375 C-12.96452637 7.65911865 -13.62436523 7.94714355 -14.30419922 8.24389648 C-15.54991875 8.79932312 -16.78006037 9.39003018 -18 10 C-18 9.34 -18 8.68 -18 8 C-20.31 8 -22.62 8 -25 8 C-22.07197637 5.07197637 -18.4904523 4.8303516 -14.5625 4 C-13.02088735 3.67248727 -11.48045444 3.33935946 -9.94140625 3 C-9.25763916 2.855625 -8.57387207 2.71125 -7.86938477 2.5625 C-4.69797652 1.60821966 -3.49053372 0 0 0 Z " fill="#B3B2B2" transform="translate(196,121)"/>
<path d="M0 0 C0.99 0.33 1.98 0.66 3 1 C3 0.34 3 -0.32 3 -1 C3.66 -0.67 4.32 -0.34 5 0 C4.3125 1.9375 4.3125 1.9375 3 4 C0.375 4.75 0.375 4.75 -2 5 C-2 5.66 -2 6.32 -2 7 C-3.32 6.67 -4.64 6.34 -6 6 C-6 5.34 -6 4.68 -6 4 C-6.66 4 -7.32 4 -8 4 C-7.625 2.0625 -7.625 2.0625 -7 0 C-4.30224476 -1.34887762 -2.88231982 -0.70300484 0 0 Z " fill="#912629" transform="translate(79,111)"/>
<path d="M0 0 C2.109375 0.41015625 2.109375 0.41015625 4 1 C2.45672226 2.70509716 0.8896325 4.3886674 -0.6875 6.0625 C-1.55761719 7.00222656 -2.42773438 7.94195312 -3.32421875 8.91015625 C-6 11 -6 11 -8.83203125 10.80859375 C-9.54746094 10.54175781 -10.26289062 10.27492187 -11 10 C-10.34 9.01 -9.68 8.02 -9 7 C-8.01 7 -7.02 7 -6 7 C-5.814375 6.071875 -5.814375 6.071875 -5.625 5.125 C-5 3 -5 3 -3 1 C-3 1.66 -3 2.32 -3 3 C-2.5875 2.484375 -2.175 1.96875 -1.75 1.4375 C-0.88375 0.7259375 -0.88375 0.7259375 0 0 Z " fill="#6C1A1B" transform="translate(103,146)"/>
<path d="M0 0 C0.66 0.33 1.32 0.66 2 1 C2 1.99 2 2.98 2 4 C2.66 4.33 3.32 4.66 4 5 C2.68 5 1.36 5 0 5 C0 5.66 0 6.32 0 7 C-0.66 7 -1.32 7 -2 7 C-2.66 8.65 -3.32 10.3 -4 12 C-4.33 11.34 -4.66 10.68 -5 10 C-6.98 10.66 -8.96 11.32 -11 12 C-7.49102731 7.81576108 -3.91939465 3.80411834 0 0 Z " fill="#301717" transform="translate(55,100)"/>
<path d="M0 0 C6.625 -0.125 6.625 -0.125 10 1 C10.33 1.99 10.66 2.98 11 4 C10.67 4.66 10.34 5.32 10 6 C10.60760482 8.3494053 11.27129528 10.68529088 12 13 C10.35 13 8.7 13 7 13 C7 12.34 7 11.68 7 11 C7.66 11 8.32 11 9 11 C9 9.68 9 8.36 9 7 C8.01 7.33 7.02 7.66 6 8 C5.5875 7.175 5.175 6.35 4.75 5.5 C4.1725 4.675 3.595 3.85 3 3 C1.68 3 0.36 3 -1 3 C-0.67 2.01 -0.34 1.02 0 0 Z " fill="#B23236" transform="translate(101,120)"/>
<path d="M0 0 C0.33 0.66 0.66 1.32 1 2 C0.34 2 -0.32 2 -1 2 C-0.67 2.99 -0.34 3.98 0 5 C-0.99 5 -1.98 5 -3 5 C-3 4.34 -3 3.68 -3 3 C-6.43950364 3.61198376 -8.51564485 4.92058847 -11.25 7.0625 C-11.95640625 7.61035156 -12.6628125 8.15820312 -13.390625 8.72265625 C-13.92171875 9.14417969 -14.4528125 9.56570312 -15 10 C-15.66 9.34 -16.32 8.68 -17 8 C-14.31158141 5.74754119 -12.35358125 4.11786042 -9 3 C-8.505 2.505 -8.01 2.01 -7.5 1.5 C-4.89405773 -1.10594227 -3.43315365 -1.14438455 0 0 Z " fill="#C6383F" transform="translate(149,113)"/>
<path d="M0 0 C0 -0.66 0 -1.32 0 -2 C1.32 -2 2.64 -2 4 -2 C4 -1.34 4 -0.68 4 0 C4.99 0.33 5.98 0.66 7 1 C3.32341276 2.22552908 -0.10751116 2.22256946 -3.9375 2.25 C-4.65357422 2.270625 -5.36964844 2.29125 -6.10742188 2.3125 C-9.44214897 2.33722458 -11.61813636 2.23114367 -14.50390625 0.484375 C-14.99761719 -0.00546875 -15.49132812 -0.4953125 -16 -1 C-10.76703134 -2.88386872 -5.26675717 -1.11719091 0 0 Z " fill="#681F20" transform="translate(165,132)"/>
<path d="M0 0 C2.63978826 3.18595135 5.10498388 6.30970546 7 10 C6.67 10.66 6.34 11.32 6 12 C2.63856582 10.87952194 1.42471166 9.50292817 -1 7 C-1.66 6.67 -2.32 6.34 -3 6 C-2 4 -1 2 0 0 Z " fill="#D0545C" transform="translate(110,93)"/>
<path d="M0 0 C0.33 0.66 0.66 1.32 1 2 C0.67 2.61875 0.34 3.2375 0 3.875 C-1.24361822 5.91184893 -1.24361822 5.91184893 -0.47265625 7.8359375 C0.13135654 10.60141756 -0.46859754 12.11458532 -1.4375 14.75 C-1.86869141 15.94882813 -1.86869141 15.94882813 -2.30859375 17.171875 C-2.53675781 17.77515625 -2.76492188 18.3784375 -3 19 C-5.12027098 15.08303354 -5.52545797 12.50392547 -5 8 C-3.56924943 5.15345444 -1.87208027 2.57411037 0 0 Z " fill="#494949" transform="translate(5,155)"/>
<path d="M0 0 C0.33 0 0.66 0 1 0 C1.125 6.625 1.125 6.625 0 10 C0.66 10 1.32 10 2 10 C2 10.99 2 11.98 2 13 C4.97 13.495 4.97 13.495 8 14 C8 14.33 8 14.66 8 15 C5.36 15 2.72 15 0 15 C0 14.01 0 13.02 0 12 C-0.99 12 -1.98 12 -3 12 C-3.33 11.01 -3.66 10.02 -4 9 C-3.04504326 7.30712215 -2.0409066 5.64142963 -1 4 C-0.30420546 1.80869466 -0.30420546 1.80869466 0 0 Z " fill="#302F30" transform="translate(176,144)"/>
<path d="M0 0 C0 0.66 0 1.32 0 2 C0.99 2.33 1.98 2.66 3 3 C2 4 2 4 -0.5625 4.0625 C-1.7690625 4.0315625 -1.7690625 4.0315625 -3 4 C-3.33 4.99 -3.66 5.98 -4 7 C-4.66 7 -5.32 7 -6 7 C-7.0625 4.625 -7.0625 4.625 -8 2 C-7.67 1.34 -7.34 0.68 -7 0 C-2.52459016 -1.26229508 -2.52459016 -1.26229508 0 0 Z " fill="#8A2123" transform="translate(106,142)"/>
<path d="M0 0 C0.33 1.32 0.66 2.64 1 4 C1.598125 4.0825 2.19625 4.165 2.8125 4.25 C5.599343 5.20548903 6.32876986 6.6450848 8 9 C8.66 9 9.32 9 10 9 C10 10.32 10 11.64 10 13 C9.34 13 8.68 13 8 13 C8 12.34 8 11.68 8 11 C7.01 11 6.02 11 5 11 C5 10.34 5 9.68 5 9 C4.38125 8.87625 3.7625 8.7525 3.125 8.625 C1 8 1 8 -1 6 C-0.625 2.875 -0.625 2.875 0 0 Z " fill="#99282B" transform="translate(100,118)"/>
<path d="M0 0 C1.65 1.65 3.3 3.3 5 5 C4.34 5 3.68 5 3 5 C3 5.99 3 6.98 3 8 C1.54119891 7.85892253 0.08296449 7.71197585 -1.375 7.5625 C-2.59316406 7.44068359 -2.59316406 7.44068359 -3.8359375 7.31640625 C-6 7 -6 7 -8 6 C-7.67 4.35 -7.34 2.7 -7 1 C-6.34 1 -5.68 1 -5 1 C-4.67 1.99 -4.34 2.98 -4 4 C-3.01 3.67 -2.02 3.34 -1 3 C-0.67 2.01 -0.34 1.02 0 0 Z " fill="#D03E45" transform="translate(70,101)"/>
<path d="M0 0 C1.65 0 3.3 0 5 0 C4.67 1.32 4.34 2.64 4 4 C5.32 4.66 6.64 5.32 8 6 C8 7.32 8 8.64 8 10 C5.69 10.33 3.38 10.66 1 11 C2 9 2 9 5 7 C4.175 6.5875 3.35 6.175 2.5 5.75 C1.675 5.1725 0.85 4.595 0 4 C0 2.68 0 1.36 0 0 Z " fill="#320E0E" transform="translate(91,133)"/>
<path d="M0 0 C1.09570312 0.10183594 2.19140625 0.20367187 3.3203125 0.30859375 C4.16335937 0.39238281 5.00640625 0.47617188 5.875 0.5625 C4.885 1.5525 3.895 2.5425 2.875 3.5625 C1.885 2.9025 0.895 2.2425 -0.125 1.5625 C-0.125 2.2225 -0.125 2.8825 -0.125 3.5625 C-5.875 4.6875 -5.875 4.6875 -8.125 3.5625 C-9.45360925 3.21080932 -10.78658328 2.87479724 -12.125 2.5625 C-7.49225905 0.24612953 -5.2810962 -0.50563687 0 0 Z " fill="#B4383D" transform="translate(104.125,100.4375)"/>
<path d="M0 0 C2.64 0.33 5.28 0.66 8 1 C8 2.65 8 4.3 8 6 C1.25 6.125 1.25 6.125 -1 5 C-0.67 3.35 -0.34 1.7 0 0 Z " fill="#191919" transform="translate(15,144)"/>
<path d="M0 0 C0.64324219 0.16371094 1.28648437 0.32742187 1.94921875 0.49609375 C5.92840171 1.15334676 9.7881437 1.106353 13.8125 1.0625 C14.60076172 1.05798828 15.38902344 1.05347656 16.20117188 1.04882812 C18.13414761 1.03711312 20.06708393 1.01917998 22 1 C22 1.99 22 2.98 22 4 C20.00045254 4.04254356 17.99958364 4.04080783 16 4 C15.67 3.67 15.34 3.34 15 3 C13.41226886 3.11760971 11.82876031 3.29448091 10.25 3.5 C6.58709465 3.91456952 3.58256791 4.07477037 0 3 C0 2.01 0 1.02 0 0 Z " fill="#4B1414" transform="translate(150,132)"/>
<path d="M0 0 C2.475 0.99 2.475 0.99 5 2 C5 5 5 5 3.5 6.6875 C3.005 7.120625 2.51 7.55375 2 8 C2.99 8.66 3.98 9.32 5 10 C3.35 10.33 1.7 10.66 0 11 C0 7.33333333 0 3.66666667 0 0 Z " fill="#411111" transform="translate(91,148)"/>
<path d="M0 0 C0.12375 0.61875 0.2475 1.2375 0.375 1.875 C1.34311142 5.16657884 3.16858533 6.11239022 6 8 C3.03 8 0.06 8 -3 8 C-3.33 6.68 -3.66 5.36 -4 4 C-2.0625 1.75 -2.0625 1.75 0 0 Z " fill="#9B9A9A" transform="translate(187,147)"/>
<path d="M0 0 C0.66 0.66 1.32 1.32 2 2 C1.67 2.66 1.34 3.32 1 4 C0.01 4 -0.98 4 -2 4 C-2 4.66 -2 5.32 -2 6 C-3.65 5.67 -5.3 5.34 -7 5 C-7 5.99 -7 6.98 -7 8 C-7.66 8 -8.32 8 -9 8 C-9.33 6.35 -9.66 4.7 -10 3 C-7.77594342 2.42339274 -5.57276987 1.92051532 -3.3125 1.5 C-1.04844958 1.22901669 -1.04844958 1.22901669 0 0 Z " fill="#C43D42" transform="translate(90,101)"/>
<path d="M0 0 C0.33 0 0.66 0 1 0 C1 3.3 1 6.6 1 10 C0.01 10.495 0.01 10.495 -1 11 C-1 9.35 -1 7.7 -1 6 C-2.32 5.67 -3.64 5.34 -5 5 C-4.67 3.68 -4.34 2.36 -4 1 C-3.34 1.66 -2.68 2.32 -2 3 C-1.34 2.01 -0.68 1.02 0 0 Z " fill="#8A2425" transform="translate(107,129)"/>
<path d="M0 0 C-6.03076923 5.04615385 -6.03076923 5.04615385 -10.9375 4.8125 C-11.948125 4.544375 -12.95875 4.27625 -14 4 C-13.01 3.67 -12.02 3.34 -11 3 C-11 2.34 -11 1.68 -11 1 C-9.66666667 0.66666667 -8.33333333 0.33333333 -7 0 C-6.319375 -0.20625 -5.63875 -0.4125 -4.9375 -0.625 C-3 -1 -3 -1 0 0 Z " fill="#210A09" transform="translate(76,122)"/>
<path d="M0 0 C2.0625 0.4375 2.0625 0.4375 4 1 C5.23076923 6.41538462 5.23076923 6.41538462 4.0625 9.375 C3.711875 9.91125 3.36125 10.4475 3 11 C0.70986347 7.5647952 0.82157027 6.014669 1 2 C0.34 1.67 -0.32 1.34 -1 1 C-0.67 0.67 -0.34 0.34 0 0 Z " fill="#A72D30" transform="translate(143,115)"/>
<path d="M0 0 C0.66 0 1.32 0 2 0 C2.33 1.32 2.66 2.64 3 4 C3.99 4 4.98 4 6 4 C6 4.66 6 5.32 6 6 C4.02 6 2.04 6 0 6 C0 6.66 0 7.32 0 8 C-0.99 7.67 -1.98 7.34 -3 7 C-2.38722388 4.03824877 -1.74627478 2.61941217 0 0 Z " fill="#270D0C" transform="translate(47,113)"/>
<path d="M0 0 C1.32 0.33 2.64 0.66 4 1 C3.34 3.31 2.68 5.62 2 8 C0.35 8.33 -1.3 8.66 -3 9 C-2.01 6.03 -1.02 3.06 0 0 Z " fill="#5D191A" transform="translate(55,105)"/>
<path d="M0 0 C2.97 0.33 5.94 0.66 9 1 C8.67 4.3 8.34 7.6 8 11 C7.34 10.67 6.68 10.34 6 10 C5.375 6.9375 5.375 6.9375 5 4 C4.360625 3.896875 3.72125 3.79375 3.0625 3.6875 C2.381875 3.460625 1.70125 3.23375 1 3 C0.67 2.01 0.34 1.02 0 0 Z " fill="#8B7E7F" transform="translate(169,128)"/>
<path d="M0 0 C1.98 0 3.96 0 6 0 C6.66 1.32 7.32 2.64 8 4 C7.34 4.66 6.68 5.32 6 6 C4 5.9375 4 5.9375 2 5 C0.75 2.4375 0.75 2.4375 0 0 Z " fill="#5A1818" transform="translate(93,114)"/>
<path d="M0 0 C-0.639375 0.433125 -1.27875 0.86625 -1.9375 1.3125 C-4.26746003 2.91239177 -4.26746003 2.91239177 -5 6 C-7.64 6.33 -10.28 6.66 -13 7 C-12.67 5.68 -12.34 4.36 -12 3 C-11.67 3.66 -11.34 4.32 -11 5 C-10.113125 4.175 -9.22625 3.35 -8.3125 2.5 C-5.49455481 0.12382294 -3.76196377 -0.55322997 0 0 Z " fill="#711F20" transform="translate(96,107)"/>
<path d="M0 0 C0 4.13122742 -1.4277594 5.81854452 -4 9 C-7.25 10.375 -7.25 10.375 -10 11 C-6.79239749 7.19364503 -3.59253891 3.45436433 0 0 Z " fill="#AB5155" transform="translate(74,80)"/>
<path d="M0 0 C0.33 1.65 0.66 3.3 1 5 C-1.475 6.485 -1.475 6.485 -4 8 C-3.79375 7.21625 -3.5875 6.4325 -3.375 5.625 C-3.25125 4.75875 -3.1275 3.8925 -3 3 C-3.66 2.34 -4.32 1.68 -5 1 C-2 0 -2 0 0 0 Z " fill="#A8A8A8" transform="translate(191,139)"/>
<path d="M0 0 C1.98 0.66 3.96 1.32 6 2 C6.33 4.64 6.66 7.28 7 10 C6.34 10 5.68 10 5 10 C5 9.01 5 8.02 5 7 C4.34 7 3.68 7 3 7 C3 5.35 3 3.7 3 2 C2.01 2 1.02 2 0 2 C0 1.34 0 0.68 0 0 Z " fill="#533738" transform="translate(169,130)"/>
<path d="M0 0 C0 0.33 0 0.66 0 1 C-2.31 1.66 -4.62 2.32 -7 3 C-7 3.99 -7 4.98 -7 6 C-8.65 6 -10.3 6 -12 6 C-12.33 5.01 -12.66 4.02 -13 3 C-8.44573816 0.33409063 -5.26053037 -0.31563182 0 0 Z " fill="#91292B" transform="translate(97,106)"/>
<path d="M0 0 C1.485 0.99 1.485 0.99 3 2 C3.40843923 4.71203652 3.13336867 7.2437142 3 10 C0.9375 8.375 0.9375 8.375 -1 6 C-0.75 2.75 -0.75 2.75 0 0 Z " fill="#1C1C1C" transform="translate(198,171)"/>
<path d="M0 0 C3.375 -0.125 3.375 -0.125 7 0 C7.66 0.66 8.32 1.32 9 2 C5.37 2.66 1.74 3.32 -2 4 C-1.34 2.68 -0.68 1.36 0 0 Z " fill="#171616" transform="translate(20,138)"/>
<path d="M0 0 C0.33 0.66 0.66 1.32 1 2 C-0.65 2.33 -2.3 2.66 -4 3 C-4 3.66 -4 4.32 -4 5 C-4.99 5 -5.98 5 -7 5 C-7 3.68 -7 2.36 -7 1 C-4.53721199 -0.231394 -2.7204945 -0.07159196 0 0 Z " fill="#7C2021" transform="translate(81,113)"/>
<path d="M0 0 C0.99 0.99 1.98 1.98 3 3 C2.67 3.66 2.34 4.32 2 5 C4.31 5.33 6.62 5.66 9 6 C9 6.66 9 7.32 9 8 C6.69 7.67 4.38 7.34 2 7 C1.34 4.69 0.68 2.38 0 0 Z " fill="#A1A0A0" transform="translate(176,135)"/>
<path d="M0 0 C0.66 0.66 1.32 1.32 2 2 C-0.97 4.97 -3.94 7.94 -7 11 C-7.66 10.67 -8.32 10.34 -9 10 C-6.03 6.7 -3.06 3.4 0 0 Z " fill="#242323" transform="translate(35,121)"/>
<path d="M0 0 C0 1.32 0 2.64 0 4 C-5.94 3.01 -5.94 3.01 -12 2 C-12 1.67 -12 1.34 -12 1 C-10.56274129 0.83126522 -9.12518162 0.66509263 -7.6875 0.5 C-6.88699219 0.4071875 -6.08648437 0.314375 -5.26171875 0.21875 C-3 0 -3 0 0 0 Z " fill="#838384" transform="translate(205,154)"/>
<path d="M0 0 C-2.33214148 1.20628008 -4.49642139 2.1654738 -7 3 C-9.1875 1.5625 -9.1875 1.5625 -11 0 C-7.18243176 -1.37432457 -3.92744671 -0.67975039 0 0 Z " fill="#8A2324" transform="translate(160,131)"/>
<path d="M0 0 C1.125 3.75 1.125 3.75 0 6 C-0.66 6 -1.32 6 -2 6 C-2.66 7.65 -3.32 9.3 -4 11 C-4.33 11 -4.66 11 -5 11 C-5.25 8.6875 -5.25 8.6875 -5 6 C-3.0625 4.375 -3.0625 4.375 -1 3 C-0.67 2.01 -0.34 1.02 0 0 Z " fill="#722020" transform="translate(65,93)"/>
<path d="M0 0 C-2.97 2.475 -2.97 2.475 -6 5 C-6.66 4.67 -7.32 4.34 -8 4 C-8 3.01 -8 2.02 -8 1 C-2.25 -1.125 -2.25 -1.125 0 0 Z " fill="#C33C41" transform="translate(89,88)"/>
<path d="M0 0 C1.45823212 -0.0270043 2.91660675 -0.04639787 4.375 -0.0625 C5.18710938 -0.07410156 5.99921875 -0.08570313 6.8359375 -0.09765625 C9 0 9 0 11 1 C11 1.66 11 2.32 11 3 C6.88425629 2.5251065 3.63616656 1.9789756 0 0 Z " fill="#383838" transform="translate(186,157)"/>
<path d="M0 0 C0.99 0.33 1.98 0.66 3 1 C3 2.32 3 3.64 3 5 C2.01 5.33 1.02 5.66 0 6 C-0.99 4.68 -1.98 3.36 -3 2 C-2.01 1.34 -1.02 0.68 0 0 Z " fill="#0F0D0D" transform="translate(170,137)"/>
<path d="M0 0 C0.886875 0.185625 1.77375 0.37125 2.6875 0.5625 C5.85178811 0.98042484 7.94839642 0.80777742 11 0 C10 2 10 2 7.75 3.3125 C5 4 5 4 2.1875 2.6875 C1.465625 2.130625 0.74375 1.57375 0 1 C0 0.67 0 0.34 0 0 Z " fill="#200A09" transform="translate(150,136)"/>
<path d="M0 0 C0.99 0 1.98 0 3 0 C3 0.66 3 1.32 3 2 C-0.44833324 4.05257931 -2.31661591 5.0632763 -6.375 4.6875 C-7.24125 4.460625 -8.1075 4.23375 -9 4 C-9 3.67 -9 3.34 -9 3 C-8.43410156 2.86722656 -7.86820313 2.73445313 -7.28515625 2.59765625 C-6.18494141 2.33275391 -6.18494141 2.33275391 -5.0625 2.0625 C-4.33160156 1.88847656 -3.60070312 1.71445313 -2.84765625 1.53515625 C-1.00030102 1.16112431 -1.00030102 1.16112431 0 0 Z " fill="#B5B6B6" transform="translate(193,121)"/>
<path d="M0 0 C0.66 0.33 1.32 0.66 2 1 C1.67 2.32 1.34 3.64 1 5 C-1.31 5.33 -3.62 5.66 -6 6 C-4 4 -2 2 0 0 Z " fill="#D4515A" transform="translate(139,112)"/>
<path d="M0 0 C2 3 2 3 2 6 C4.97 6.33 7.94 6.66 11 7 C11 7.33 11 7.66 11 8 C7.7 8 4.4 8 1 8 C0.26919734 6.02253397 -0.39421747 4.01927511 -1 2 C-0.67 1.34 -0.34 0.68 0 0 Z " fill="#787778" transform="translate(182,148)"/>
<path d="M0 0 C0.33 0 0.66 0 1 0 C1 2.31 1 4.62 1 7 C0.34 7 -0.32 7 -1 7 C-1 8.65 -1 10.3 -1 12 C-1.66 12 -2.32 12 -3 12 C-3.33 11.01 -3.66 10.02 -4 9 C-3.04504326 7.30712215 -2.0409066 5.64142963 -1 4 C-0.30420546 1.80869466 -0.30420546 1.80869466 0 0 Z " fill="#272727" transform="translate(176,144)"/>
<path d="M0 0 C2.31 0.33 4.62 0.66 7 1 C6.67 1.99 6.34 2.98 6 4 C4.68 4 3.36 4 2 4 C2 3.34 2 2.68 2 2 C1.34 2 0.68 2 0 2 C0 1.34 0 0.68 0 0 Z " fill="#A1282B" transform="translate(147,127)"/>
<path d="M0 0 C1.32 0.33 2.64 0.66 4 1 C3.67 3.64 3.34 6.28 3 9 C2.67 9 2.34 9 2 9 C1.34 6.03 0.68 3.06 0 0 Z " fill="#303030" transform="translate(199,169)"/>
<path d="M0 0 C0.33 0.66 0.66 1.32 1 2 C1.99 2.66 2.98 3.32 4 4 C1.03 4 -1.94 4 -5 4 C-4.67 3.01 -4.34 2.02 -4 1 C-1.9375 0.3125 -1.9375 0.3125 0 0 Z " fill="#B0B0B0" transform="translate(198,151)"/>
<path d="M0 0 C3.63 0 7.26 0 11 0 C11 0.99 11 1.98 11 3 C6.78121808 3.19622241 3.82989106 2.80230168 0 1 C0 0.67 0 0.34 0 0 Z " fill="#391313" transform="translate(161,133)"/>
<path d="M0 0 C-1.32 1.32 -2.64 2.64 -4 4 C-4.33 3.34 -4.66 2.68 -5 2 C-7.31 2 -9.62 2 -12 2 C-12 1.67 -12 1.34 -12 1 C-7.95858806 0.36605303 -4.0934693 -0.12404452 0 0 Z " fill="#A5A4A4" transform="translate(183,127)"/>
<path d="M0 0 C0.66 0.33 1.32 0.66 2 1 C0.515 3.475 0.515 3.475 -1 6 C-2.32 5.67 -3.64 5.34 -5 5 C-3.35 3.35 -1.7 1.7 0 0 Z " fill="#401111" transform="translate(97,119)"/>
<path d="M0 0 C-0.33 1.65 -0.66 3.3 -1 5 C-2.98 5 -4.96 5 -7 5 C-2.25 0 -2.25 0 0 0 Z " fill="#3B1B1A" transform="translate(66,91)"/>
<path d="M0 0 C0 2.31 0 4.62 0 7 C-1.37562854 5.71034824 -2.70766393 4.37310707 -4 3 C-4 2.34 -4 1.68 -4 1 C-1 0 -1 0 0 0 Z " fill="#787878" transform="translate(205,162)"/>
<path d="M0 0 C0.99 0.33 1.98 0.66 3 1 C3 1.99 3 2.98 3 4 C1.68 4.33 0.36 4.66 -1 5 C-1 4.34 -1 3.68 -1 3 C-1.66 2.67 -2.32 2.34 -3 2 C-2.01 1.34 -1.02 0.68 0 0 Z " fill="#6A1A1B" transform="translate(96,143)"/>
<path d="M0 0 C2.875 -0.125 2.875 -0.125 6 0 C6.66 0.66 7.32 1.32 8 2 C7.01 2 6.02 2 5 2 C5 2.66 5 3.32 5 4 C3.02 3.34 1.04 2.68 -1 2 C-0.67 1.34 -0.34 0.68 0 0 Z " fill="#D4545D" transform="translate(147,106)"/>
<path d="M0 0 C0.99 0.33 1.98 0.66 3 1 C3 1.66 3 2.32 3 3 C2.34 3 1.68 3 1 3 C1 3.66 1 4.32 1 5 C0.34 5 -0.32 5 -1 5 C-1 4.34 -1 3.68 -1 3 C-2.32 3 -3.64 3 -5 3 C-4.67 2.34 -4.34 1.68 -4 1 C-2.02 1.495 -2.02 1.495 0 2 C0 1.34 0 0.68 0 0 Z " fill="#972F32" transform="translate(104,102)"/>
<path d="M0 0 C0.8971875 0.5259375 0.8971875 0.5259375 1.8125 1.0625 C0.4925 1.0625 -0.8275 1.0625 -2.1875 1.0625 C-2.5175 1.7225 -2.8475 2.3825 -3.1875 3.0625 C-4.8375 3.0625 -6.4875 3.0625 -8.1875 3.0625 C-5.67391791 0.30952914 -3.81682031 -1.63578013 0 0 Z " fill="#C43F44" transform="translate(100.1875,100.9375)"/>
<path d="M0 0 C2.0625 0.4375 2.0625 0.4375 4 1 C4.33 2.32 4.66 3.64 5 5 C3.125 4.6875 3.125 4.6875 1 4 C0.34 3.01 -0.32 2.02 -1 1 C-0.67 0.67 -0.34 0.34 0 0 Z " fill="#D34B54" transform="translate(112,100)"/>
<path d="M0 0 C0.66 0.66 1.32 1.32 2 2 C0.35 2 -1.3 2 -3 2 C-3 2.66 -3 3.32 -3 4 C-4.65 4 -6.3 4 -8 4 C-6.23043542 1.85789551 -5.12424348 1.03939427 -2.4375 0.1875 C-1.633125 0.125625 -0.82875 0.06375 0 0 Z " fill="#9E2E30" transform="translate(168,128)"/>
<path d="M0 0 C1.5 1.3125 1.5 1.3125 3 3 C3 3.99 3 4.98 3 6 C3.66 6 4.32 6 5 6 C5 6.66 5 7.32 5 8 C4.01 8 3.02 8 2 8 C2 7.01 2 6.02 2 5 C1.34 5 0.68 5 0 5 C0 3.35 0 1.7 0 0 Z " fill="#6B1B1C" transform="translate(144,123)"/>
<path d="M0 0 C2.64 0.33 5.28 0.66 8 1 C4.77208445 3.1519437 3.71599191 3.20086443 0 3 C0 2.01 0 1.02 0 0 Z " fill="#B53236" transform="translate(69,108)"/>
<path d="M0 0 C1.5625 1.125 1.5625 1.125 3 3 C2.6875 6.1875 2.6875 6.1875 2 9 C1.67 7.68 1.34 6.36 1 5 C0.34 5 -0.32 5 -1 5 C-0.67 3.35 -0.34 1.7 0 0 Z " fill="#C34145" transform="translate(68,88)"/>
</svg>
